<mxfile host="app.diagrams.net" agent="Mozilla/5.0 (Windows NT 10.0; Win64; x64) AppleWebKit/537.36 (KHTML, like Gecko) Chrome/130.0.0.0 Safari/537.36" version="24.7.17">
  <diagram id="prtHgNgQTEPvFCAcTncT" name="Page-1">
    <mxGraphModel grid="1" page="1" gridSize="10" guides="1" tooltips="1" connect="1" arrows="1" fold="1" pageScale="1" pageWidth="1169" pageHeight="1654" math="0" shadow="0">
      <root>
        <mxCell id="0" />
        <mxCell id="1" parent="0" />
        <mxCell id="7-YZF02Emuef2Ez2xkZm-93" style="edgeStyle=orthogonalEdgeStyle;rounded=0;orthogonalLoop=1;jettySize=auto;html=1;entryX=0.5;entryY=0;entryDx=0;entryDy=0;" edge="1" parent="1" source="7-YZF02Emuef2Ez2xkZm-90" target="7-YZF02Emuef2Ez2xkZm-92">
          <mxGeometry relative="1" as="geometry" />
        </mxCell>
        <mxCell id="7-YZF02Emuef2Ez2xkZm-94" value="Not Available in store" style="edgeLabel;html=1;align=center;verticalAlign=middle;resizable=0;points=[];" vertex="1" connectable="0" parent="7-YZF02Emuef2Ez2xkZm-93">
          <mxGeometry x="-0.7929" y="1" relative="1" as="geometry">
            <mxPoint as="offset" />
          </mxGeometry>
        </mxCell>
        <mxCell id="C3Y8m0aXwXrcLiICh7oO-31" value="&lt;font size=&quot;1&quot;&gt;Template&lt;/font&gt;" style="rounded=1;whiteSpace=wrap;html=1;" vertex="1" parent="1">
          <mxGeometry x="1600" y="-1010" width="90" height="40" as="geometry" />
        </mxCell>
        <mxCell id="7-YZF02Emuef2Ez2xkZm-71" value="Staff Member" style="swimlane;html=1;startSize=20;horizontal=0;" vertex="1" parent="1">
          <mxGeometry x="40" y="-1600" width="1520" height="220" as="geometry" />
        </mxCell>
        <mxCell id="4dBbkoU6vs2JRiaPE6d_-11" value="" style="group" connectable="0" vertex="1" parent="7-YZF02Emuef2Ez2xkZm-71">
          <mxGeometry x="20" y="120" width="80" height="80" as="geometry" />
        </mxCell>
        <mxCell id="4dBbkoU6vs2JRiaPE6d_-8" value="" style="ellipse;whiteSpace=wrap;html=1;aspect=fixed;" vertex="1" parent="4dBbkoU6vs2JRiaPE6d_-11">
          <mxGeometry x="20" width="40" height="40" as="geometry" />
        </mxCell>
        <mxCell id="4dBbkoU6vs2JRiaPE6d_-10" value="&lt;font style=&quot;font-size: 10px;&quot;&gt;New Order&lt;/font&gt;" style="text;strokeColor=none;fillColor=none;align=center;verticalAlign=middle;spacingLeft=4;spacingRight=4;overflow=hidden;points=[[0,0.5],[1,0.5]];portConstraint=eastwest;rotatable=0;whiteSpace=wrap;html=1;" vertex="1" parent="4dBbkoU6vs2JRiaPE6d_-11">
          <mxGeometry y="40" width="80" height="30" as="geometry" />
        </mxCell>
        <mxCell id="4dBbkoU6vs2JRiaPE6d_-32" value="" style="shape=mxgraph.bpmn.data;labelPosition=center;verticalLabelPosition=bottom;align=center;verticalAlign=top;size=15;html=1;" vertex="1" parent="7-YZF02Emuef2Ez2xkZm-71">
          <mxGeometry x="80" y="50" width="30" height="40" as="geometry" />
        </mxCell>
        <mxCell id="4dBbkoU6vs2JRiaPE6d_-34" style="edgeStyle=orthogonalEdgeStyle;rounded=0;orthogonalLoop=1;jettySize=auto;html=1;exitX=0.5;exitY=0;exitDx=0;exitDy=0;entryX=0;entryY=0.5;entryDx=0;entryDy=0;entryPerimeter=0;dashed=1;dashPattern=1 1;endArrow=none;endFill=0;" edge="1" parent="7-YZF02Emuef2Ez2xkZm-71" source="4dBbkoU6vs2JRiaPE6d_-8" target="4dBbkoU6vs2JRiaPE6d_-32">
          <mxGeometry relative="1" as="geometry" />
        </mxCell>
        <mxCell id="4dBbkoU6vs2JRiaPE6d_-35" value="- product list&lt;br&gt;- customer information&lt;br&gt;- Staff-Member" style="text;html=1;align=left;verticalAlign=middle;resizable=0;points=[];autosize=1;strokeColor=none;fillColor=none;" vertex="1" parent="7-YZF02Emuef2Ez2xkZm-71">
          <mxGeometry x="120" y="40" width="140" height="60" as="geometry" />
        </mxCell>
        <mxCell id="P50et1wgJEWvE7VBJ5p5-38" value="Order Delivered" style="points=[[0.145,0.145,0],[0.5,0,0],[0.855,0.145,0],[1,0.5,0],[0.855,0.855,0],[0.5,1,0],[0.145,0.855,0],[0,0.5,0]];shape=mxgraph.bpmn.event;html=1;verticalLabelPosition=bottom;labelBackgroundColor=#ffffff;verticalAlign=top;align=center;perimeter=ellipsePerimeter;outlineConnect=0;aspect=fixed;outline=end;symbol=terminate2;" vertex="1" parent="7-YZF02Emuef2Ez2xkZm-71">
          <mxGeometry x="1064" y="90" width="40" height="40" as="geometry" />
        </mxCell>
        <mxCell id="P50et1wgJEWvE7VBJ5p5-50" value="Order Invalid" style="points=[[0.145,0.145,0],[0.5,0,0],[0.855,0.145,0],[1,0.5,0],[0.855,0.855,0],[0.5,1,0],[0.145,0.855,0],[0,0.5,0]];shape=mxgraph.bpmn.event;html=1;verticalLabelPosition=bottom;labelBackgroundColor=#ffffff;verticalAlign=top;align=center;perimeter=ellipsePerimeter;outlineConnect=0;aspect=fixed;outline=end;symbol=terminate2;" vertex="1" parent="7-YZF02Emuef2Ez2xkZm-71">
          <mxGeometry x="250" y="120" width="40" height="40" as="geometry" />
        </mxCell>
        <mxCell id="7-YZF02Emuef2Ez2xkZm-79" value="Order" style="swimlane;html=1;startSize=20;horizontal=0;" vertex="1" parent="1">
          <mxGeometry x="40" y="-1380" width="1520" height="220" as="geometry" />
        </mxCell>
        <mxCell id="P50et1wgJEWvE7VBJ5p5-61" style="edgeStyle=orthogonalEdgeStyle;rounded=0;orthogonalLoop=1;jettySize=auto;html=1;exitX=0.25;exitY=1;exitDx=0;exitDy=0;entryX=1;entryY=0.5;entryDx=0;entryDy=0;endArrow=none;endFill=0;dashed=1;" edge="1" parent="7-YZF02Emuef2Ez2xkZm-79" source="4dBbkoU6vs2JRiaPE6d_-14" target="P50et1wgJEWvE7VBJ5p5-60">
          <mxGeometry relative="1" as="geometry" />
        </mxCell>
        <mxCell id="4dBbkoU6vs2JRiaPE6d_-14" value="&lt;font style=&quot;font-size: 10px;&quot;&gt;Create New Order&lt;/font&gt;" style="rounded=1;whiteSpace=wrap;html=1;" vertex="1" parent="7-YZF02Emuef2Ez2xkZm-79">
          <mxGeometry x="120" y="90" width="90" height="40" as="geometry" />
        </mxCell>
        <mxCell id="P50et1wgJEWvE7VBJ5p5-63" style="edgeStyle=orthogonalEdgeStyle;rounded=0;orthogonalLoop=1;jettySize=auto;html=1;exitX=0.25;exitY=1;exitDx=0;exitDy=0;entryX=1;entryY=0.7;entryDx=0;entryDy=0;endArrow=none;endFill=0;dashed=1;" edge="1" parent="7-YZF02Emuef2Ez2xkZm-79" source="P50et1wgJEWvE7VBJ5p5-20" target="P50et1wgJEWvE7VBJ5p5-60">
          <mxGeometry relative="1" as="geometry" />
        </mxCell>
        <mxCell id="P50et1wgJEWvE7VBJ5p5-20" value="&lt;font style=&quot;font-size: 10px;&quot;&gt;Mark order as delivered&lt;/font&gt;" style="rounded=1;whiteSpace=wrap;html=1;" vertex="1" parent="7-YZF02Emuef2Ez2xkZm-79">
          <mxGeometry x="1039" y="90" width="90" height="40" as="geometry" />
        </mxCell>
        <mxCell id="P50et1wgJEWvE7VBJ5p5-62" style="edgeStyle=orthogonalEdgeStyle;rounded=0;orthogonalLoop=1;jettySize=auto;html=1;exitX=0.25;exitY=1;exitDx=0;exitDy=0;entryX=1;entryY=0.5;entryDx=0;entryDy=0;endArrow=none;endFill=0;dashed=1;" edge="1" parent="7-YZF02Emuef2Ez2xkZm-79" source="P50et1wgJEWvE7VBJ5p5-49" target="P50et1wgJEWvE7VBJ5p5-60">
          <mxGeometry relative="1" as="geometry" />
        </mxCell>
        <mxCell id="P50et1wgJEWvE7VBJ5p5-49" value="&lt;font style=&quot;font-size: 10px;&quot;&gt;Flag order as invalid&lt;/font&gt;" style="rounded=1;whiteSpace=wrap;html=1;" vertex="1" parent="7-YZF02Emuef2Ez2xkZm-79">
          <mxGeometry x="225" y="90" width="90" height="40" as="geometry" />
        </mxCell>
        <mxCell id="P50et1wgJEWvE7VBJ5p5-60" value="" style="shape=datastore;whiteSpace=wrap;html=1;" vertex="1" parent="7-YZF02Emuef2Ez2xkZm-79">
          <mxGeometry x="40" y="140" width="60" height="60" as="geometry" />
        </mxCell>
        <mxCell id="7-YZF02Emuef2Ez2xkZm-80" value="Store Management" style="swimlane;html=1;startSize=20;horizontal=0;" vertex="1" parent="1">
          <mxGeometry x="40" y="-1160" width="1520" height="220" as="geometry" />
        </mxCell>
        <mxCell id="7-YZF02Emuef2Ez2xkZm-91" style="edgeStyle=orthogonalEdgeStyle;rounded=0;orthogonalLoop=1;jettySize=auto;html=1;entryX=0;entryY=0.5;entryDx=0;entryDy=0;" edge="1" parent="7-YZF02Emuef2Ez2xkZm-80" source="7-YZF02Emuef2Ez2xkZm-89" target="7-YZF02Emuef2Ez2xkZm-90">
          <mxGeometry relative="1" as="geometry" />
        </mxCell>
        <mxCell id="7-YZF02Emuef2Ez2xkZm-89" value="&lt;font size=&quot;1&quot;&gt;Check product Availability in Store&lt;/font&gt;" style="rounded=1;whiteSpace=wrap;html=1;" vertex="1" parent="7-YZF02Emuef2Ez2xkZm-80">
          <mxGeometry x="500" y="50" width="90" height="40" as="geometry" />
        </mxCell>
        <mxCell id="7-YZF02Emuef2Ez2xkZm-105" value="Available in store" style="edgeStyle=orthogonalEdgeStyle;rounded=0;orthogonalLoop=1;jettySize=auto;html=1;entryX=0;entryY=0.5;entryDx=0;entryDy=0;" edge="1" parent="7-YZF02Emuef2Ez2xkZm-80" source="7-YZF02Emuef2Ez2xkZm-90" target="7-YZF02Emuef2Ez2xkZm-104">
          <mxGeometry relative="1" as="geometry">
            <mxPoint x="590" y="70" as="targetPoint" />
          </mxGeometry>
        </mxCell>
        <mxCell id="7-YZF02Emuef2Ez2xkZm-90" value="X" style="rhombus;whiteSpace=wrap;html=1;fontFamily=Helvetica;fontSize=12;fontColor=#000000;align=center;" vertex="1" parent="7-YZF02Emuef2Ez2xkZm-80">
          <mxGeometry x="675" y="50" width="40" height="40" as="geometry" />
        </mxCell>
        <mxCell id="7-YZF02Emuef2Ez2xkZm-98" value="&lt;font size=&quot;1&quot;&gt;Deliver to Customer&lt;/font&gt;" style="rounded=1;whiteSpace=wrap;html=1;" vertex="1" parent="7-YZF02Emuef2Ez2xkZm-80">
          <mxGeometry x="920" y="50" width="90" height="40" as="geometry" />
        </mxCell>
        <mxCell id="7-YZF02Emuef2Ez2xkZm-106" style="edgeStyle=orthogonalEdgeStyle;rounded=0;orthogonalLoop=1;jettySize=auto;html=1;entryX=0;entryY=0.5;entryDx=0;entryDy=0;" edge="1" parent="7-YZF02Emuef2Ez2xkZm-80" source="7-YZF02Emuef2Ez2xkZm-104" target="7-YZF02Emuef2Ez2xkZm-98">
          <mxGeometry relative="1" as="geometry" />
        </mxCell>
        <mxCell id="7-YZF02Emuef2Ez2xkZm-104" value="X" style="rhombus;whiteSpace=wrap;html=1;fontFamily=Helvetica;fontSize=12;fontColor=#000000;align=center;" vertex="1" parent="7-YZF02Emuef2Ez2xkZm-80">
          <mxGeometry x="835" y="50" width="40" height="40" as="geometry" />
        </mxCell>
        <mxCell id="7-YZF02Emuef2Ez2xkZm-128" style="edgeStyle=orthogonalEdgeStyle;rounded=0;orthogonalLoop=1;jettySize=auto;html=1;" edge="1" parent="7-YZF02Emuef2Ez2xkZm-80" source="7-YZF02Emuef2Ez2xkZm-126">
          <mxGeometry relative="1" as="geometry">
            <mxPoint x="400" y="70" as="targetPoint" />
          </mxGeometry>
        </mxCell>
        <mxCell id="7-YZF02Emuef2Ez2xkZm-129" value="Order is valid" style="edgeLabel;html=1;align=center;verticalAlign=middle;resizable=0;points=[];" connectable="0" vertex="1" parent="7-YZF02Emuef2Ez2xkZm-128">
          <mxGeometry x="-0.0556" y="1" relative="1" as="geometry">
            <mxPoint x="1" as="offset" />
          </mxGeometry>
        </mxCell>
        <mxCell id="7-YZF02Emuef2Ez2xkZm-126" value="X" style="rhombus;whiteSpace=wrap;html=1;fontFamily=Helvetica;fontSize=12;fontColor=#000000;align=center;" vertex="1" parent="7-YZF02Emuef2Ez2xkZm-80">
          <mxGeometry x="250" y="50" width="40" height="40" as="geometry" />
        </mxCell>
        <mxCell id="7-YZF02Emuef2Ez2xkZm-135" style="edgeStyle=orthogonalEdgeStyle;rounded=0;orthogonalLoop=1;jettySize=auto;html=1;entryX=0;entryY=0.5;entryDx=0;entryDy=0;" edge="1" parent="7-YZF02Emuef2Ez2xkZm-80" source="7-YZF02Emuef2Ez2xkZm-134" target="7-YZF02Emuef2Ez2xkZm-89">
          <mxGeometry relative="1" as="geometry" />
        </mxCell>
        <mxCell id="7-YZF02Emuef2Ez2xkZm-134" value="+" style="rhombus;whiteSpace=wrap;html=1;fontFamily=Helvetica;fontSize=12;fontColor=#000000;align=center;" vertex="1" parent="7-YZF02Emuef2Ez2xkZm-80">
          <mxGeometry x="395" y="50" width="40" height="40" as="geometry" />
        </mxCell>
        <mxCell id="7-YZF02Emuef2Ez2xkZm-81" value="Customer Management" style="swimlane;html=1;startSize=20;horizontal=0;" vertex="1" parent="1">
          <mxGeometry x="40" y="-940" width="1520" height="220" as="geometry" />
        </mxCell>
        <mxCell id="7-YZF02Emuef2Ez2xkZm-143" style="edgeStyle=orthogonalEdgeStyle;rounded=0;orthogonalLoop=1;jettySize=auto;html=1;entryX=0;entryY=0.5;entryDx=0;entryDy=0;" edge="1" parent="7-YZF02Emuef2Ez2xkZm-81" source="7-YZF02Emuef2Ez2xkZm-141" target="7-YZF02Emuef2Ez2xkZm-142">
          <mxGeometry relative="1" as="geometry" />
        </mxCell>
        <mxCell id="7-YZF02Emuef2Ez2xkZm-141" value="+" style="rhombus;whiteSpace=wrap;html=1;fontFamily=Helvetica;fontSize=12;fontColor=#000000;align=center;" vertex="1" parent="7-YZF02Emuef2Ez2xkZm-81">
          <mxGeometry x="395" y="80" width="40" height="40" as="geometry" />
        </mxCell>
        <mxCell id="P50et1wgJEWvE7VBJ5p5-9" style="edgeStyle=orthogonalEdgeStyle;rounded=0;orthogonalLoop=1;jettySize=auto;html=1;entryX=0;entryY=0.5;entryDx=0;entryDy=0;" edge="1" parent="7-YZF02Emuef2Ez2xkZm-81" source="7-YZF02Emuef2Ez2xkZm-142" target="P50et1wgJEWvE7VBJ5p5-8">
          <mxGeometry relative="1" as="geometry" />
        </mxCell>
        <mxCell id="7-YZF02Emuef2Ez2xkZm-142" value="&lt;font size=&quot;1&quot;&gt;Check customer&lt;/font&gt;" style="rounded=1;whiteSpace=wrap;html=1;" vertex="1" parent="7-YZF02Emuef2Ez2xkZm-81">
          <mxGeometry x="480" y="80" width="90" height="40" as="geometry" />
        </mxCell>
        <mxCell id="P50et1wgJEWvE7VBJ5p5-24" style="edgeStyle=orthogonalEdgeStyle;rounded=0;orthogonalLoop=1;jettySize=auto;html=1;exitX=1;exitY=0.5;exitDx=0;exitDy=0;entryX=0;entryY=0.5;entryDx=0;entryDy=0;" edge="1" parent="7-YZF02Emuef2Ez2xkZm-81" source="P50et1wgJEWvE7VBJ5p5-8" target="P50et1wgJEWvE7VBJ5p5-10">
          <mxGeometry relative="1" as="geometry" />
        </mxCell>
        <mxCell id="P50et1wgJEWvE7VBJ5p5-26" value="dosen&#39;t exist" style="edgeLabel;html=1;align=center;verticalAlign=middle;resizable=0;points=[];" connectable="0" vertex="1" parent="P50et1wgJEWvE7VBJ5p5-24">
          <mxGeometry x="-0.2833" y="-1" relative="1" as="geometry">
            <mxPoint x="-1" as="offset" />
          </mxGeometry>
        </mxCell>
        <mxCell id="P50et1wgJEWvE7VBJ5p5-8" value="X" style="rhombus;whiteSpace=wrap;html=1;fontFamily=Helvetica;fontSize=12;fontColor=#000000;align=center;" vertex="1" parent="7-YZF02Emuef2Ez2xkZm-81">
          <mxGeometry x="610" y="80" width="40" height="40" as="geometry" />
        </mxCell>
        <mxCell id="P50et1wgJEWvE7VBJ5p5-25" style="edgeStyle=orthogonalEdgeStyle;rounded=0;orthogonalLoop=1;jettySize=auto;html=1;exitX=1;exitY=0.5;exitDx=0;exitDy=0;entryX=0;entryY=0.5;entryDx=0;entryDy=0;" edge="1" parent="7-YZF02Emuef2Ez2xkZm-81" source="P50et1wgJEWvE7VBJ5p5-10" target="P50et1wgJEWvE7VBJ5p5-13">
          <mxGeometry relative="1" as="geometry" />
        </mxCell>
        <mxCell id="P50et1wgJEWvE7VBJ5p5-10" value="&lt;font size=&quot;1&quot;&gt;Create and store customer&lt;/font&gt;" style="rounded=1;whiteSpace=wrap;html=1;" vertex="1" parent="7-YZF02Emuef2Ez2xkZm-81">
          <mxGeometry x="750" y="80" width="90" height="40" as="geometry" />
        </mxCell>
        <mxCell id="P50et1wgJEWvE7VBJ5p5-94" style="edgeStyle=orthogonalEdgeStyle;rounded=0;orthogonalLoop=1;jettySize=auto;html=1;exitX=1;exitY=0.5;exitDx=0;exitDy=0;entryX=0.5;entryY=0;entryDx=0;entryDy=0;" edge="1" parent="7-YZF02Emuef2Ez2xkZm-81" source="P50et1wgJEWvE7VBJ5p5-13" target="P50et1wgJEWvE7VBJ5p5-88">
          <mxGeometry relative="1" as="geometry" />
        </mxCell>
        <mxCell id="P50et1wgJEWvE7VBJ5p5-13" value="X" style="rhombus;whiteSpace=wrap;html=1;fontFamily=Helvetica;fontSize=12;fontColor=#000000;align=center;" vertex="1" parent="7-YZF02Emuef2Ez2xkZm-81">
          <mxGeometry x="900" y="80" width="40" height="40" as="geometry" />
        </mxCell>
        <mxCell id="P50et1wgJEWvE7VBJ5p5-92" style="edgeStyle=orthogonalEdgeStyle;rounded=0;orthogonalLoop=1;jettySize=auto;html=1;exitX=0;exitY=0;exitDx=30;exitDy=27.5;exitPerimeter=0;entryX=0;entryY=0.5;entryDx=0;entryDy=0;endArrow=none;endFill=0;dashed=1;" edge="1" parent="7-YZF02Emuef2Ez2xkZm-81" source="P50et1wgJEWvE7VBJ5p5-85" target="P50et1wgJEWvE7VBJ5p5-90">
          <mxGeometry relative="1" as="geometry" />
        </mxCell>
        <mxCell id="P50et1wgJEWvE7VBJ5p5-85" value="Customer" style="shape=mxgraph.bpmn.data;labelPosition=center;verticalLabelPosition=bottom;align=center;verticalAlign=top;size=15;html=1;" vertex="1" parent="7-YZF02Emuef2Ez2xkZm-81">
          <mxGeometry x="890" y="10" width="30" height="40" as="geometry" />
        </mxCell>
        <mxCell id="P50et1wgJEWvE7VBJ5p5-88" value="&lt;font size=&quot;1&quot;&gt;Get Customer&lt;/font&gt;" style="rounded=1;whiteSpace=wrap;html=1;" vertex="1" parent="7-YZF02Emuef2Ez2xkZm-81">
          <mxGeometry x="990" y="130" width="90" height="40" as="geometry" />
        </mxCell>
        <mxCell id="P50et1wgJEWvE7VBJ5p5-89" style="edgeStyle=orthogonalEdgeStyle;rounded=0;orthogonalLoop=1;jettySize=auto;html=1;exitX=0.75;exitY=0;exitDx=0;exitDy=0;entryX=0;entryY=0.5;entryDx=0;entryDy=0;entryPerimeter=0;endArrow=none;endFill=0;dashed=1;" edge="1" parent="7-YZF02Emuef2Ez2xkZm-81" source="P50et1wgJEWvE7VBJ5p5-10" target="P50et1wgJEWvE7VBJ5p5-85">
          <mxGeometry relative="1" as="geometry" />
        </mxCell>
        <mxCell id="P50et1wgJEWvE7VBJ5p5-90" value="" style="shape=datastore;whiteSpace=wrap;html=1;" vertex="1" parent="7-YZF02Emuef2Ez2xkZm-81">
          <mxGeometry x="1005" y="10" width="60" height="60" as="geometry" />
        </mxCell>
        <mxCell id="P50et1wgJEWvE7VBJ5p5-96" value="Customer" style="shape=mxgraph.bpmn.data;labelPosition=center;verticalLabelPosition=bottom;align=center;verticalAlign=top;size=15;html=1;" vertex="1" parent="7-YZF02Emuef2Ez2xkZm-81">
          <mxGeometry x="1120" y="100" width="30" height="40" as="geometry" />
        </mxCell>
        <mxCell id="P50et1wgJEWvE7VBJ5p5-97" style="edgeStyle=orthogonalEdgeStyle;rounded=0;orthogonalLoop=1;jettySize=auto;html=1;exitX=1;exitY=0.5;exitDx=0;exitDy=0;entryX=0;entryY=0;entryDx=7.5;entryDy=0;entryPerimeter=0;endArrow=none;endFill=0;dashed=1;" edge="1" parent="7-YZF02Emuef2Ez2xkZm-81" source="P50et1wgJEWvE7VBJ5p5-90" target="P50et1wgJEWvE7VBJ5p5-96">
          <mxGeometry relative="1" as="geometry" />
        </mxCell>
        <mxCell id="7-YZF02Emuef2Ez2xkZm-83" value="Central Warehouse" style="swimlane;html=1;startSize=20;horizontal=0;" vertex="1" parent="1">
          <mxGeometry x="40" y="-720" width="1520" height="220" as="geometry" />
        </mxCell>
        <mxCell id="7-YZF02Emuef2Ez2xkZm-96" style="edgeStyle=orthogonalEdgeStyle;rounded=0;orthogonalLoop=1;jettySize=auto;html=1;entryX=0;entryY=0.5;entryDx=0;entryDy=0;" edge="1" parent="7-YZF02Emuef2Ez2xkZm-83" source="7-YZF02Emuef2Ez2xkZm-92" target="7-YZF02Emuef2Ez2xkZm-95">
          <mxGeometry relative="1" as="geometry" />
        </mxCell>
        <mxCell id="7-YZF02Emuef2Ez2xkZm-92" value="&lt;font size=&quot;1&quot;&gt;Place Order to Store&lt;/font&gt;" style="rounded=1;whiteSpace=wrap;html=1;" vertex="1" parent="7-YZF02Emuef2Ez2xkZm-83">
          <mxGeometry x="650" y="90" width="90" height="40" as="geometry" />
        </mxCell>
        <mxCell id="7-YZF02Emuef2Ez2xkZm-95" value="&lt;font size=&quot;1&quot;&gt;Deliver&lt;/font&gt;" style="rounded=1;whiteSpace=wrap;html=1;" vertex="1" parent="7-YZF02Emuef2Ez2xkZm-83">
          <mxGeometry x="810" y="90" width="90" height="40" as="geometry" />
        </mxCell>
        <mxCell id="P50et1wgJEWvE7VBJ5p5-53" value="Order to store" style="shape=mxgraph.bpmn.data;labelPosition=center;verticalLabelPosition=bottom;align=center;verticalAlign=top;size=15;html=1;" vertex="1" parent="7-YZF02Emuef2Ez2xkZm-83">
          <mxGeometry x="745" y="20" width="30" height="40" as="geometry" />
        </mxCell>
        <mxCell id="P50et1wgJEWvE7VBJ5p5-54" style="edgeStyle=orthogonalEdgeStyle;rounded=0;orthogonalLoop=1;jettySize=auto;html=1;exitX=0.75;exitY=0;exitDx=0;exitDy=0;entryX=0;entryY=0.5;entryDx=0;entryDy=0;entryPerimeter=0;startArrow=none;startFill=0;dashed=1;endArrow=none;endFill=0;" edge="1" parent="7-YZF02Emuef2Ez2xkZm-83" source="7-YZF02Emuef2Ez2xkZm-92" target="P50et1wgJEWvE7VBJ5p5-53">
          <mxGeometry relative="1" as="geometry" />
        </mxCell>
        <mxCell id="7-YZF02Emuef2Ez2xkZm-84" value="Article Registry" style="swimlane;html=1;startSize=20;horizontal=0;" vertex="1" parent="1">
          <mxGeometry x="40" y="-500" width="1520" height="220" as="geometry" />
        </mxCell>
        <mxCell id="7-YZF02Emuef2Ez2xkZm-119" value="&lt;font size=&quot;1&quot;&gt;Check if article exist&lt;/font&gt;" style="rounded=1;whiteSpace=wrap;html=1;" vertex="1" parent="7-YZF02Emuef2Ez2xkZm-84">
          <mxGeometry x="120" y="90" width="90" height="40" as="geometry" />
        </mxCell>
        <mxCell id="7-YZF02Emuef2Ez2xkZm-85" value="Accounting" style="swimlane;html=1;startSize=20;horizontal=0;" vertex="1" parent="1">
          <mxGeometry x="40" y="-280" width="1520" height="220" as="geometry" />
        </mxCell>
        <mxCell id="P50et1wgJEWvE7VBJ5p5-47" style="edgeStyle=orthogonalEdgeStyle;rounded=0;orthogonalLoop=1;jettySize=auto;html=1;entryX=0;entryY=0.5;entryDx=0;entryDy=0;" edge="1" parent="7-YZF02Emuef2Ez2xkZm-85" source="4dBbkoU6vs2JRiaPE6d_-40" target="P50et1wgJEWvE7VBJ5p5-45">
          <mxGeometry relative="1" as="geometry" />
        </mxCell>
        <mxCell id="4dBbkoU6vs2JRiaPE6d_-40" value="&lt;font size=&quot;1&quot;&gt;Send Order Confirmation&lt;/font&gt;" style="rounded=1;whiteSpace=wrap;html=1;" vertex="1" parent="7-YZF02Emuef2Ez2xkZm-85">
          <mxGeometry x="990" y="100" width="90" height="40" as="geometry" />
        </mxCell>
        <mxCell id="P50et1wgJEWvE7VBJ5p5-70" style="edgeStyle=orthogonalEdgeStyle;rounded=0;orthogonalLoop=1;jettySize=auto;html=1;exitX=1;exitY=0.5;exitDx=0;exitDy=0;entryX=0;entryY=0.5;entryDx=0;entryDy=0;" edge="1" parent="7-YZF02Emuef2Ez2xkZm-85" source="P50et1wgJEWvE7VBJ5p5-27" target="P50et1wgJEWvE7VBJ5p5-68">
          <mxGeometry relative="1" as="geometry" />
        </mxCell>
        <mxCell id="P50et1wgJEWvE7VBJ5p5-27" value="&lt;font size=&quot;1&quot;&gt;Check for payment reminders&lt;/font&gt;" style="rounded=1;whiteSpace=wrap;html=1;" vertex="1" parent="7-YZF02Emuef2Ez2xkZm-85">
          <mxGeometry x="585" y="50" width="90" height="40" as="geometry" />
        </mxCell>
        <mxCell id="P50et1wgJEWvE7VBJ5p5-36" value="&lt;span style=&quot;font-weight: normal;&quot;&gt;Invoice sent&lt;/span&gt;" style="points=[[0.145,0.145,0],[0.5,0,0],[0.855,0.145,0],[1,0.5,0],[0.855,0.855,0],[0.5,1,0],[0.145,0.855,0],[0,0.5,0]];shape=mxgraph.bpmn.event;html=1;verticalLabelPosition=bottom;labelBackgroundColor=#ffffff;verticalAlign=top;align=center;perimeter=ellipsePerimeter;outlineConnect=0;aspect=fixed;outline=end;symbol=terminate2;fontStyle=1" vertex="1" parent="7-YZF02Emuef2Ez2xkZm-85">
          <mxGeometry x="1400" y="100" width="40" height="40" as="geometry" />
        </mxCell>
        <mxCell id="P50et1wgJEWvE7VBJ5p5-45" value="&lt;font size=&quot;1&quot;&gt;Send Invoice&lt;/font&gt;" style="rounded=1;whiteSpace=wrap;html=1;" vertex="1" parent="7-YZF02Emuef2Ez2xkZm-85">
          <mxGeometry x="1190" y="100" width="90" height="40" as="geometry" />
        </mxCell>
        <mxCell id="P50et1wgJEWvE7VBJ5p5-46" style="edgeStyle=orthogonalEdgeStyle;rounded=0;orthogonalLoop=1;jettySize=auto;html=1;entryX=0;entryY=0.5;entryDx=0;entryDy=0;entryPerimeter=0;" edge="1" parent="7-YZF02Emuef2Ez2xkZm-85" source="P50et1wgJEWvE7VBJ5p5-45" target="P50et1wgJEWvE7VBJ5p5-36">
          <mxGeometry relative="1" as="geometry" />
        </mxCell>
        <mxCell id="P50et1wgJEWvE7VBJ5p5-64" value="X" style="rhombus;whiteSpace=wrap;html=1;fontFamily=Helvetica;fontSize=12;fontColor=#000000;align=center;" vertex="1" parent="7-YZF02Emuef2Ez2xkZm-85">
          <mxGeometry x="900" y="50" width="40" height="40" as="geometry" />
        </mxCell>
        <mxCell id="P50et1wgJEWvE7VBJ5p5-72" style="edgeStyle=orthogonalEdgeStyle;rounded=0;orthogonalLoop=1;jettySize=auto;html=1;exitX=0.5;exitY=1;exitDx=0;exitDy=0;entryX=0;entryY=0.5;entryDx=0;entryDy=0;" edge="1" parent="7-YZF02Emuef2Ez2xkZm-85" source="P50et1wgJEWvE7VBJ5p5-68" target="P50et1wgJEWvE7VBJ5p5-71">
          <mxGeometry relative="1" as="geometry" />
        </mxCell>
        <mxCell id="P50et1wgJEWvE7VBJ5p5-73" value="Yes" style="edgeLabel;html=1;align=center;verticalAlign=middle;resizable=0;points=[];" connectable="0" vertex="1" parent="P50et1wgJEWvE7VBJ5p5-72">
          <mxGeometry x="-0.5041" y="2" relative="1" as="geometry">
            <mxPoint as="offset" />
          </mxGeometry>
        </mxCell>
        <mxCell id="P50et1wgJEWvE7VBJ5p5-74" style="edgeStyle=orthogonalEdgeStyle;rounded=0;orthogonalLoop=1;jettySize=auto;html=1;entryX=0;entryY=0.5;entryDx=0;entryDy=0;" edge="1" parent="7-YZF02Emuef2Ez2xkZm-85" source="P50et1wgJEWvE7VBJ5p5-68" target="P50et1wgJEWvE7VBJ5p5-64">
          <mxGeometry relative="1" as="geometry" />
        </mxCell>
        <mxCell id="P50et1wgJEWvE7VBJ5p5-76" value="No payment reminders" style="edgeLabel;html=1;align=center;verticalAlign=middle;resizable=0;points=[];" connectable="0" vertex="1" parent="P50et1wgJEWvE7VBJ5p5-74">
          <mxGeometry x="-0.3867" y="-1" relative="1" as="geometry">
            <mxPoint x="25" y="-11" as="offset" />
          </mxGeometry>
        </mxCell>
        <mxCell id="P50et1wgJEWvE7VBJ5p5-68" value="X" style="rhombus;whiteSpace=wrap;html=1;fontFamily=Helvetica;fontSize=12;fontColor=#000000;align=center;" vertex="1" parent="7-YZF02Emuef2Ez2xkZm-85">
          <mxGeometry x="710" y="50" width="40" height="40" as="geometry" />
        </mxCell>
        <mxCell id="P50et1wgJEWvE7VBJ5p5-75" style="edgeStyle=orthogonalEdgeStyle;rounded=0;orthogonalLoop=1;jettySize=auto;html=1;exitX=1;exitY=0.5;exitDx=0;exitDy=0;entryX=0.5;entryY=1;entryDx=0;entryDy=0;" edge="1" parent="7-YZF02Emuef2Ez2xkZm-85" source="P50et1wgJEWvE7VBJ5p5-71" target="P50et1wgJEWvE7VBJ5p5-64">
          <mxGeometry relative="1" as="geometry" />
        </mxCell>
        <mxCell id="P50et1wgJEWvE7VBJ5p5-71" value="&lt;font size=&quot;1&quot;&gt;Send warning to staff&lt;/font&gt;" style="rounded=1;whiteSpace=wrap;html=1;" vertex="1" parent="7-YZF02Emuef2Ez2xkZm-85">
          <mxGeometry x="780" y="160" width="90" height="40" as="geometry" />
        </mxCell>
        <mxCell id="P50et1wgJEWvE7VBJ5p5-79" value="Warning" style="shape=mxgraph.bpmn.data;labelPosition=center;verticalLabelPosition=bottom;align=center;verticalAlign=top;size=15;html=1;" vertex="1" parent="7-YZF02Emuef2Ez2xkZm-85">
          <mxGeometry x="830" y="90" width="30" height="40" as="geometry" />
        </mxCell>
        <mxCell id="P50et1wgJEWvE7VBJ5p5-80" style="edgeStyle=orthogonalEdgeStyle;rounded=0;orthogonalLoop=1;jettySize=auto;html=1;exitX=0.25;exitY=0;exitDx=0;exitDy=0;entryX=0;entryY=0.5;entryDx=0;entryDy=0;entryPerimeter=0;endArrow=none;endFill=0;dashed=1;" edge="1" parent="7-YZF02Emuef2Ez2xkZm-85" source="P50et1wgJEWvE7VBJ5p5-71" target="P50et1wgJEWvE7VBJ5p5-79">
          <mxGeometry relative="1" as="geometry" />
        </mxCell>
        <mxCell id="P50et1wgJEWvE7VBJ5p5-81" value="Order confirmation" style="shape=mxgraph.bpmn.data;labelPosition=center;verticalLabelPosition=bottom;align=center;verticalAlign=top;size=15;html=1;" vertex="1" parent="7-YZF02Emuef2Ez2xkZm-85">
          <mxGeometry x="980" y="20" width="30" height="40" as="geometry" />
        </mxCell>
        <mxCell id="P50et1wgJEWvE7VBJ5p5-82" value="Invoice" style="shape=mxgraph.bpmn.data;labelPosition=center;verticalLabelPosition=bottom;align=center;verticalAlign=top;size=14;html=1;" vertex="1" parent="7-YZF02Emuef2Ez2xkZm-85">
          <mxGeometry x="1270" y="10" width="30" height="40" as="geometry" />
        </mxCell>
        <mxCell id="P50et1wgJEWvE7VBJ5p5-83" style="edgeStyle=orthogonalEdgeStyle;rounded=0;orthogonalLoop=1;jettySize=auto;html=1;entryX=0;entryY=0.5;entryDx=0;entryDy=0;entryPerimeter=0;endArrow=none;endFill=0;dashed=1;" edge="1" parent="7-YZF02Emuef2Ez2xkZm-85" source="P50et1wgJEWvE7VBJ5p5-45" target="P50et1wgJEWvE7VBJ5p5-82">
          <mxGeometry relative="1" as="geometry" />
        </mxCell>
        <mxCell id="P50et1wgJEWvE7VBJ5p5-99" style="edgeStyle=orthogonalEdgeStyle;rounded=0;orthogonalLoop=1;jettySize=auto;html=1;exitX=0;exitY=0.25;exitDx=0;exitDy=0;entryX=0;entryY=0.5;entryDx=0;entryDy=0;entryPerimeter=0;endArrow=none;endFill=0;dashed=1;" edge="1" parent="7-YZF02Emuef2Ez2xkZm-85" source="4dBbkoU6vs2JRiaPE6d_-40" target="P50et1wgJEWvE7VBJ5p5-81">
          <mxGeometry relative="1" as="geometry" />
        </mxCell>
        <mxCell id="4dBbkoU6vs2JRiaPE6d_-7" value="USers" style="text;html=1;align=center;verticalAlign=middle;whiteSpace=wrap;rounded=0;rotation=-90;" vertex="1" parent="1">
          <mxGeometry x="-10" y="-1510" width="60" height="30" as="geometry" />
        </mxCell>
        <mxCell id="7-YZF02Emuef2Ez2xkZm-87" value="&lt;font size=&quot;1&quot;&gt;Template&lt;/font&gt;" style="rounded=1;whiteSpace=wrap;html=1;" vertex="1" parent="1">
          <mxGeometry x="1620" y="-1190" width="90" height="40" as="geometry" />
        </mxCell>
        <mxCell id="7-YZF02Emuef2Ez2xkZm-88" value="&lt;font size=&quot;1&quot;&gt;Template&lt;/font&gt;" style="rounded=1;whiteSpace=wrap;html=1;" vertex="1" parent="1">
          <mxGeometry x="1630" y="-1340" width="90" height="40" as="geometry" />
        </mxCell>
        <mxCell id="4dBbkoU6vs2JRiaPE6d_-9" value="Annahme: Staff bereits eingelogged und Rechte geprüft&lt;div&gt;&lt;br&gt;&lt;/div&gt;" style="text;html=1;align=center;verticalAlign=middle;resizable=0;points=[];autosize=1;strokeColor=none;fillColor=none;" vertex="1" parent="1">
          <mxGeometry x="40" y="-1640" width="320" height="40" as="geometry" />
        </mxCell>
        <mxCell id="7-YZF02Emuef2Ez2xkZm-117" style="edgeStyle=orthogonalEdgeStyle;rounded=0;orthogonalLoop=1;jettySize=auto;html=1;entryX=0.5;entryY=0;entryDx=0;entryDy=0;exitX=0.5;exitY=1;exitDx=0;exitDy=0;" edge="1" parent="1" source="4dBbkoU6vs2JRiaPE6d_-14" target="7-YZF02Emuef2Ez2xkZm-119">
          <mxGeometry relative="1" as="geometry">
            <mxPoint x="205" y="-1070" as="sourcePoint" />
            <mxPoint x="205" y="-890" as="targetPoint" />
          </mxGeometry>
        </mxCell>
        <mxCell id="4dBbkoU6vs2JRiaPE6d_-31" style="edgeStyle=orthogonalEdgeStyle;rounded=0;orthogonalLoop=1;jettySize=auto;html=1;exitX=1;exitY=0.5;exitDx=0;exitDy=0;entryX=0.5;entryY=0;entryDx=0;entryDy=0;" edge="1" parent="1" source="4dBbkoU6vs2JRiaPE6d_-8" target="4dBbkoU6vs2JRiaPE6d_-14">
          <mxGeometry relative="1" as="geometry">
            <mxPoint x="210" y="-1460" as="targetPoint" />
          </mxGeometry>
        </mxCell>
        <mxCell id="7-YZF02Emuef2Ez2xkZm-127" style="edgeStyle=orthogonalEdgeStyle;rounded=0;orthogonalLoop=1;jettySize=auto;html=1;" edge="1" parent="1" source="7-YZF02Emuef2Ez2xkZm-119" target="7-YZF02Emuef2Ez2xkZm-126">
          <mxGeometry relative="1" as="geometry" />
        </mxCell>
        <mxCell id="4dBbkoU6vs2JRiaPE6d_-39" value="Log" style="swimlane;html=1;startSize=20;horizontal=0;" vertex="1" parent="1">
          <mxGeometry x="40" y="-60" width="1520" height="260" as="geometry" />
        </mxCell>
        <mxCell id="P50et1wgJEWvE7VBJ5p5-32" style="edgeStyle=orthogonalEdgeStyle;rounded=0;orthogonalLoop=1;jettySize=auto;html=1;" edge="1" parent="4dBbkoU6vs2JRiaPE6d_-39" source="P50et1wgJEWvE7VBJ5p5-5" target="P50et1wgJEWvE7VBJ5p5-31">
          <mxGeometry relative="1" as="geometry" />
        </mxCell>
        <mxCell id="P50et1wgJEWvE7VBJ5p5-5" value="&lt;font size=&quot;1&quot;&gt;Log Order&lt;/font&gt;" style="rounded=1;whiteSpace=wrap;html=1;" vertex="1" parent="4dBbkoU6vs2JRiaPE6d_-39">
          <mxGeometry x="500" y="120" width="90" height="40" as="geometry" />
        </mxCell>
        <mxCell id="P50et1wgJEWvE7VBJ5p5-31" value="&lt;span style=&quot;font-weight: normal;&quot;&gt;Logged&lt;/span&gt;" style="points=[[0.145,0.145,0],[0.5,0,0],[0.855,0.145,0],[1,0.5,0],[0.855,0.855,0],[0.5,1,0],[0.145,0.855,0],[0,0.5,0]];shape=mxgraph.bpmn.event;html=1;verticalLabelPosition=bottom;labelBackgroundColor=#ffffff;verticalAlign=top;align=center;perimeter=ellipsePerimeter;outlineConnect=0;aspect=fixed;outline=end;symbol=terminate2;fontStyle=1" vertex="1" parent="4dBbkoU6vs2JRiaPE6d_-39">
          <mxGeometry x="690" y="120" width="40" height="40" as="geometry" />
        </mxCell>
        <mxCell id="7-YZF02Emuef2Ez2xkZm-132" style="edgeStyle=orthogonalEdgeStyle;rounded=0;orthogonalLoop=1;jettySize=auto;html=1;entryX=0.5;entryY=1;entryDx=0;entryDy=0;entryPerimeter=0;" edge="1" parent="1" source="7-YZF02Emuef2Ez2xkZm-126">
          <mxGeometry relative="1" as="geometry">
            <mxPoint x="310" y="-1250" as="targetPoint" />
          </mxGeometry>
        </mxCell>
        <mxCell id="7-YZF02Emuef2Ez2xkZm-133" value="Order is not valid" style="edgeLabel;html=1;align=center;verticalAlign=middle;resizable=0;points=[];" connectable="0" vertex="1" parent="7-YZF02Emuef2Ez2xkZm-132">
          <mxGeometry x="-0.6375" y="-1" relative="1" as="geometry">
            <mxPoint x="-1" y="-41" as="offset" />
          </mxGeometry>
        </mxCell>
        <mxCell id="7-YZF02Emuef2Ez2xkZm-140" style="edgeStyle=orthogonalEdgeStyle;rounded=0;orthogonalLoop=1;jettySize=auto;html=1;entryX=0.5;entryY=0;entryDx=0;entryDy=0;" edge="1" parent="1" source="7-YZF02Emuef2Ez2xkZm-134">
          <mxGeometry relative="1" as="geometry">
            <mxPoint x="455" y="-860" as="targetPoint" />
          </mxGeometry>
        </mxCell>
        <mxCell id="P50et1wgJEWvE7VBJ5p5-21" style="edgeStyle=orthogonalEdgeStyle;rounded=0;orthogonalLoop=1;jettySize=auto;html=1;entryX=0.5;entryY=1;entryDx=0;entryDy=0;" edge="1" parent="1" source="7-YZF02Emuef2Ez2xkZm-98" target="P50et1wgJEWvE7VBJ5p5-20">
          <mxGeometry relative="1" as="geometry" />
        </mxCell>
        <mxCell id="P50et1wgJEWvE7VBJ5p5-23" style="edgeStyle=orthogonalEdgeStyle;rounded=0;orthogonalLoop=1;jettySize=auto;html=1;exitX=0.5;exitY=1;exitDx=0;exitDy=0;entryX=0;entryY=0.5;entryDx=0;entryDy=0;" edge="1" parent="1" source="7-YZF02Emuef2Ez2xkZm-141" target="P50et1wgJEWvE7VBJ5p5-5">
          <mxGeometry relative="1" as="geometry" />
        </mxCell>
        <mxCell id="P50et1wgJEWvE7VBJ5p5-39" style="edgeStyle=orthogonalEdgeStyle;rounded=0;orthogonalLoop=1;jettySize=auto;html=1;entryX=0.5;entryY=1;entryDx=0;entryDy=0;entryPerimeter=0;" edge="1" parent="1" source="P50et1wgJEWvE7VBJ5p5-20" target="P50et1wgJEWvE7VBJ5p5-38">
          <mxGeometry relative="1" as="geometry" />
        </mxCell>
        <mxCell id="P50et1wgJEWvE7VBJ5p5-51" style="edgeStyle=orthogonalEdgeStyle;rounded=0;orthogonalLoop=1;jettySize=auto;html=1;exitX=0.5;exitY=0;exitDx=0;exitDy=0;entryX=0.5;entryY=1;entryDx=0;entryDy=0;entryPerimeter=0;" edge="1" parent="1" source="P50et1wgJEWvE7VBJ5p5-49" target="P50et1wgJEWvE7VBJ5p5-50">
          <mxGeometry relative="1" as="geometry" />
        </mxCell>
        <mxCell id="P50et1wgJEWvE7VBJ5p5-58" style="edgeStyle=orthogonalEdgeStyle;rounded=0;orthogonalLoop=1;jettySize=auto;html=1;entryX=0.5;entryY=1;entryDx=0;entryDy=0;" edge="1" parent="1" source="7-YZF02Emuef2Ez2xkZm-95" target="7-YZF02Emuef2Ez2xkZm-104">
          <mxGeometry relative="1" as="geometry" />
        </mxCell>
        <mxCell id="P50et1wgJEWvE7VBJ5p5-59" style="edgeStyle=orthogonalEdgeStyle;rounded=0;orthogonalLoop=1;jettySize=auto;html=1;exitX=0.5;exitY=1;exitDx=0;exitDy=0;exitPerimeter=0;entryX=0;entryY=0.5;entryDx=0;entryDy=0;endArrow=none;endFill=0;dashed=1;" edge="1" parent="1" source="4dBbkoU6vs2JRiaPE6d_-32" target="4dBbkoU6vs2JRiaPE6d_-14">
          <mxGeometry relative="1" as="geometry" />
        </mxCell>
        <mxCell id="P50et1wgJEWvE7VBJ5p5-67" style="edgeStyle=orthogonalEdgeStyle;rounded=0;orthogonalLoop=1;jettySize=auto;html=1;exitX=0.5;exitY=0;exitDx=0;exitDy=0;entryX=0.5;entryY=1;entryDx=0;entryDy=0;" edge="1" parent="1" source="P50et1wgJEWvE7VBJ5p5-64" target="P50et1wgJEWvE7VBJ5p5-13">
          <mxGeometry relative="1" as="geometry" />
        </mxCell>
        <mxCell id="P50et1wgJEWvE7VBJ5p5-69" style="edgeStyle=orthogonalEdgeStyle;rounded=0;orthogonalLoop=1;jettySize=auto;html=1;exitX=0.5;exitY=1;exitDx=0;exitDy=0;entryX=0.5;entryY=0;entryDx=0;entryDy=0;" edge="1" parent="1" source="P50et1wgJEWvE7VBJ5p5-8" target="P50et1wgJEWvE7VBJ5p5-27">
          <mxGeometry relative="1" as="geometry" />
        </mxCell>
        <mxCell id="P50et1wgJEWvE7VBJ5p5-95" style="edgeStyle=orthogonalEdgeStyle;rounded=0;orthogonalLoop=1;jettySize=auto;html=1;exitX=0.5;exitY=1;exitDx=0;exitDy=0;entryX=0.5;entryY=0;entryDx=0;entryDy=0;" edge="1" parent="1" source="P50et1wgJEWvE7VBJ5p5-88" target="4dBbkoU6vs2JRiaPE6d_-40">
          <mxGeometry relative="1" as="geometry" />
        </mxCell>
        <mxCell id="P50et1wgJEWvE7VBJ5p5-100" style="edgeStyle=orthogonalEdgeStyle;rounded=0;orthogonalLoop=1;jettySize=auto;html=1;exitX=0.5;exitY=1;exitDx=0;exitDy=0;exitPerimeter=0;entryX=0.75;entryY=0;entryDx=0;entryDy=0;endArrow=none;endFill=0;dashed=1;" edge="1" parent="1" source="P50et1wgJEWvE7VBJ5p5-96" target="4dBbkoU6vs2JRiaPE6d_-40">
          <mxGeometry relative="1" as="geometry" />
        </mxCell>
        <mxCell id="P50et1wgJEWvE7VBJ5p5-101" style="edgeStyle=orthogonalEdgeStyle;rounded=0;orthogonalLoop=1;jettySize=auto;html=1;exitX=0.25;exitY=0;exitDx=0;exitDy=0;entryX=0;entryY=0;entryDx=30;entryDy=27.5;entryPerimeter=0;endArrow=none;endFill=0;dashed=1;" edge="1" parent="1" source="P50et1wgJEWvE7VBJ5p5-45" target="P50et1wgJEWvE7VBJ5p5-96">
          <mxGeometry relative="1" as="geometry" />
        </mxCell>
      </root>
    </mxGraphModel>
  </diagram>
</mxfile>
